<svg width="45" height="46" viewBox="0 0 45 46" fill="none" xmlns="http://www.w3.org/2000/svg">
<g clip-path="url(#clip0_1_18173)">
<path d="M19.2599 39.8022C29.7081 39.8022 38.1782 31.279 38.1782 20.7651C38.1782 10.2512 29.7081 1.72803 19.2599 1.72803C8.81156 1.72803 0.341553 10.2512 0.341553 20.7651C0.341553 31.279 8.81156 39.8022 19.2599 39.8022Z" fill="white"/>
<path opacity="0.4" d="M41.4257 45.6295C40.6908 45.6057 39.992 45.3034 39.4693 44.783L34.9892 39.5463C34.0287 38.6679 33.9501 37.1751 34.8131 36.1995C35.217 35.7908 35.7662 35.561 36.3391 35.561C36.9119 35.561 37.4611 35.7908 37.8651 36.1995L43.4995 40.7078C44.3111 41.5385 44.5615 42.7717 44.1389 43.8562C43.7162 44.9407 42.6995 45.6739 41.5431 45.728L41.4257 45.6295Z" fill="white"/>
</g>
<defs>
<clipPath id="clip0_1_18173">
<rect width="45" height="45" fill="white" transform="translate(0 0.984375)"/>
</clipPath>
</defs>
</svg>
