<svg width="24" height="32" viewBox="0 0 24 32" fill="none" xmlns="http://www.w3.org/2000/svg">
<g clip-path="url(#clip0_1_27439)">
<path d="M23.4972 12.7778C23.9866 9.43787 21.4925 7.64229 18.0817 6.44461L19.1894 1.92055L16.4875 1.23435L15.4084 5.63943C14.6989 5.45923 13.9698 5.28805 13.2451 5.12039L14.3282 0.686199L11.6291 0L10.5246 4.52228L5.07652 3.14638L4.35774 6.08819C4.35774 6.08819 6.36199 6.55655 6.31965 6.58566C7.41356 6.86425 7.61196 7.60213 7.57848 8.18748L4.54728 20.5812C4.41337 20.92 4.07416 21.428 3.30959 21.2338C3.33667 21.2739 1.34621 20.7318 1.34621 20.7318L0.00512695 23.8889L5.44527 25.2895L4.32721 29.8662L7.02513 30.5524L8.13288 26.0248C8.87134 26.2286 9.58519 26.4169 10.2848 26.5941L9.1815 31.1006L11.8829 31.7868L13.0009 27.2188C17.6073 28.1073 21.0713 27.7489 22.5273 23.5042C23.702 20.0845 22.4697 18.1118 20.0461 16.8247C21.811 16.408 23.1403 15.2249 23.495 12.7795L23.4972 12.7778ZM17.3235 21.6022C16.4865 25.0219 10.8409 23.1739 9.00894 22.7096L10.4923 16.647C12.3232 17.1128 18.1944 18.0355 17.3245 21.6017L17.3235 21.6022ZM18.1614 12.7293C17.3998 15.8416 12.6989 14.2603 11.1732 13.8723L12.5162 8.3722C14.0424 8.76072 18.9536 9.48405 18.1595 12.7291" fill="#010725"/>
</g>
<defs>
<clipPath id="clip0_1_27439">
<rect width="24" height="32" fill="white" transform="translate(0.00512695)"/>
</clipPath>
</defs>
</svg>
